name rise37.2698peak67.6939fall79.5734.mot
datacolumns 19
datarows 30
range 22.50825300000000 22.55658200000000
endheader
time	ground_force1_vx	ground_force1_vy	ground_force1_vz	ground_force1_px	ground_force1_py	ground_force1_pz	ground_force2_vx	ground_force2_vy	ground_force2_vz	ground_force2_px	ground_force2_py	ground_force2_pz	ground_torque1_x	ground_torque1_y	ground_torque1_z	ground_torque2_x	ground_torque2_y	ground_torque2_z	
22.50825300000000	20.45996100000000	704.74609299999997	38.26376100000000	0.28797200000000	0.00000000000000	0.10528200000000	0.00000000000000	0.00000000000000	0.00000000000000	0.00000000000000	0.00000000000000	0.00000000000000	0.00000000000000	17.71358400000000	0.00000000000000	0.00000000000000	0.00000000000000	0.00000000000000	
22.50991900000000	20.07596400000000	705.38341100000002	38.26493200000000	0.28708100000000	0.00000000000000	0.10522500000000	0.00000000000000	0.00000000000000	0.00000000000000	0.00000000000000	0.00000000000000	0.00000000000000	0.00000000000000	17.75799200000000	0.00000000000000	0.00000000000000	0.00000000000000	0.00000000000000	
22.51158500000000	19.68618500000000	706.06329200000005	38.26914800000000	0.28619800000000	0.00000000000000	0.10516900000000	0.00000000000000	0.00000000000000	0.00000000000000	0.00000000000000	0.00000000000000	0.00000000000000	0.00000000000000	17.80667800000000	0.00000000000000	0.00000000000000	0.00000000000000	0.00000000000000	
22.51324700000000	19.29059200000000	706.78512799999999	38.27616900000000	0.28532200000000	0.00000000000000	0.10511300000000	0.00000000000000	0.00000000000000	0.00000000000000	0.00000000000000	0.00000000000000	0.00000000000000	0.00000000000000	17.85945300000000	0.00000000000000	0.00000000000000	0.00000000000000	0.00000000000000	
22.51491800000000	18.88916200000000	707.54831799999999	38.28576500000000	0.28445300000000	0.00000000000000	0.10505700000000	0.00000000000000	0.00000000000000	0.00000000000000	0.00000000000000	0.00000000000000	0.00000000000000	0.00000000000000	17.91613000000000	0.00000000000000	0.00000000000000	0.00000000000000	0.00000000000000	
22.51658600000000	18.48189000000000	708.35226100000000	38.29771900000000	0.28359000000000	0.00000000000000	0.10500200000000	0.00000000000000	0.00000000000000	0.00000000000000	0.00000000000000	0.00000000000000	0.00000000000000	0.00000000000000	17.97652200000000	0.00000000000000	0.00000000000000	0.00000000000000	0.00000000000000	
22.51825100000000	18.06878200000000	709.19635700000003	38.31182500000000	0.28273300000000	0.00000000000000	0.10494800000000	0.00000000000000	0.00000000000000	0.00000000000000	0.00000000000000	0.00000000000000	0.00000000000000	0.00000000000000	18.04044500000000	0.00000000000000	0.00000000000000	0.00000000000000	0.00000000000000	
22.51991700000000	17.64986200000000	710.08000900000002	38.32789300000000	0.28188200000000	0.00000000000000	0.10489300000000	0.00000000000000	0.00000000000000	0.00000000000000	0.00000000000000	0.00000000000000	0.00000000000000	0.00000000000000	18.10771500000000	0.00000000000000	0.00000000000000	0.00000000000000	0.00000000000000	
22.52158900000000	17.22516400000000	711.00262099999998	38.34574900000000	0.28103600000000	0.00000000000000	0.10483900000000	0.00000000000000	0.00000000000000	0.00000000000000	0.00000000000000	0.00000000000000	0.00000000000000	0.00000000000000	18.17814900000000	0.00000000000000	0.00000000000000	0.00000000000000	0.00000000000000	
22.52325300000000	16.79473900000000	711.96359299999995	38.36522900000000	0.28019500000000	0.00000000000000	0.10478600000000	0.00000000000000	0.00000000000000	0.00000000000000	0.00000000000000	0.00000000000000	0.00000000000000	0.00000000000000	18.25156800000000	0.00000000000000	0.00000000000000	0.00000000000000	0.00000000000000	
22.52492000000000	16.35865000000000	712.96232499999996	38.38619000000000	0.27935800000000	0.00000000000000	0.10473200000000	0.00000000000000	0.00000000000000	0.00000000000000	0.00000000000000	0.00000000000000	0.00000000000000	0.00000000000000	18.32779600000000	0.00000000000000	0.00000000000000	0.00000000000000	0.00000000000000	
22.52658600000000	15.91697400000000	713.99821499999996	38.40850200000000	0.27852400000000	0.00000000000000	0.10468000000000	0.00000000000000	0.00000000000000	0.00000000000000	0.00000000000000	0.00000000000000	0.00000000000000	0.00000000000000	18.40665900000000	0.00000000000000	0.00000000000000	0.00000000000000	0.00000000000000	
22.52824700000000	15.46980300000000	715.07065399999999	38.43205200000000	0.27769300000000	0.00000000000000	0.10462700000000	0.00000000000000	0.00000000000000	0.00000000000000	0.00000000000000	0.00000000000000	0.00000000000000	0.00000000000000	18.48798700000000	0.00000000000000	0.00000000000000	0.00000000000000	0.00000000000000	
22.52991500000000	15.01724200000000	716.17902700000002	38.45674600000000	0.27686500000000	0.00000000000000	0.10457500000000	0.00000000000000	0.00000000000000	0.00000000000000	0.00000000000000	0.00000000000000	0.00000000000000	0.00000000000000	18.57161300000000	0.00000000000000	0.00000000000000	0.00000000000000	0.00000000000000	
22.53159400000000	14.55940800000000	717.32271200000002	38.48250400000000	0.27603900000000	0.00000000000000	0.10452400000000	0.00000000000000	0.00000000000000	0.00000000000000	0.00000000000000	0.00000000000000	0.00000000000000	0.00000000000000	18.65737300000000	0.00000000000000	0.00000000000000	0.00000000000000	0.00000000000000	
22.53325100000000	14.09643400000000	718.50107600000001	38.50926800000000	0.27521500000000	0.00000000000000	0.10447300000000	0.00000000000000	0.00000000000000	0.00000000000000	0.00000000000000	0.00000000000000	0.00000000000000	0.00000000000000	18.74511000000000	0.00000000000000	0.00000000000000	0.00000000000000	0.00000000000000	
22.53491500000000	13.62846400000000	719.71347500000002	38.53699300000000	0.27439200000000	0.00000000000000	0.10442300000000	0.00000000000000	0.00000000000000	0.00000000000000	0.00000000000000	0.00000000000000	0.00000000000000	0.00000000000000	18.83466900000000	0.00000000000000	0.00000000000000	0.00000000000000	0.00000000000000	
22.53659400000000	13.15565500000000	720.95925199999999	38.56565500000000	0.27357000000000	0.00000000000000	0.10437300000000	0.00000000000000	0.00000000000000	0.00000000000000	0.00000000000000	0.00000000000000	0.00000000000000	0.00000000000000	18.92589900000000	0.00000000000000	0.00000000000000	0.00000000000000	0.00000000000000	
22.53825000000000	12.67817700000000	722.23773400000005	38.59524700000000	0.27274700000000	0.00000000000000	0.10432300000000	0.00000000000000	0.00000000000000	0.00000000000000	0.00000000000000	0.00000000000000	0.00000000000000	0.00000000000000	19.01865600000000	0.00000000000000	0.00000000000000	0.00000000000000	0.00000000000000	
22.53991600000000	12.19621300000000	723.54822899999999	38.62578000000000	0.27192400000000	0.00000000000000	0.10427500000000	0.00000000000000	0.00000000000000	0.00000000000000	0.00000000000000	0.00000000000000	0.00000000000000	0.00000000000000	19.11279700000000	0.00000000000000	0.00000000000000	0.00000000000000	0.00000000000000	
22.54159100000000	11.70995800000000	724.89002900000003	38.65728400000000	0.27110100000000	0.00000000000000	0.10422700000000	0.00000000000000	0.00000000000000	0.00000000000000	0.00000000000000	0.00000000000000	0.00000000000000	0.00000000000000	19.20818600000000	0.00000000000000	0.00000000000000	0.00000000000000	0.00000000000000	
22.54324700000000	11.21961700000000	726.26240299999995	38.68980300000000	0.27027600000000	0.00000000000000	0.10417900000000	0.00000000000000	0.00000000000000	0.00000000000000	0.00000000000000	0.00000000000000	0.00000000000000	0.00000000000000	19.30469300000000	0.00000000000000	0.00000000000000	0.00000000000000	0.00000000000000	
22.54491200000000	10.72540800000000	727.66459699999996	38.72340300000000	0.26944900000000	0.00000000000000	0.10413300000000	0.00000000000000	0.00000000000000	0.00000000000000	0.00000000000000	0.00000000000000	0.00000000000000	0.00000000000000	19.40219100000000	0.00000000000000	0.00000000000000	0.00000000000000	0.00000000000000	
22.54657900000000	10.22756100000000	729.09583199999997	38.75816500000000	0.26862000000000	0.00000000000000	0.10408700000000	0.00000000000000	0.00000000000000	0.00000000000000	0.00000000000000	0.00000000000000	0.00000000000000	0.00000000000000	19.50055800000000	0.00000000000000	0.00000000000000	0.00000000000000	0.00000000000000	
22.54825200000000	9.72631300000000	730.55530399999998	38.79418700000000	0.26778800000000	0.00000000000000	0.10404100000000	0.00000000000000	0.00000000000000	0.00000000000000	0.00000000000000	0.00000000000000	0.00000000000000	0.00000000000000	19.59967700000000	0.00000000000000	0.00000000000000	0.00000000000000	0.00000000000000	
22.54991400000000	9.22191500000000	732.04217900000003	38.83158200000000	0.26695400000000	0.00000000000000	0.10399700000000	0.00000000000000	0.00000000000000	0.00000000000000	0.00000000000000	0.00000000000000	0.00000000000000	0.00000000000000	19.69943600000000	0.00000000000000	0.00000000000000	0.00000000000000	0.00000000000000	
22.55158600000000	8.71462500000000	733.55559400000004	38.87048200000000	0.26611500000000	0.00000000000000	0.10395400000000	0.00000000000000	0.00000000000000	0.00000000000000	0.00000000000000	0.00000000000000	0.00000000000000	0.00000000000000	19.79972900000000	0.00000000000000	0.00000000000000	0.00000000000000	0.00000000000000	
22.55325000000000	8.20471200000000	735.09465499999999	38.91103000000000	0.26527300000000	0.00000000000000	0.10391100000000	0.00000000000000	0.00000000000000	0.00000000000000	0.00000000000000	0.00000000000000	0.00000000000000	0.00000000000000	19.90045400000000	0.00000000000000	0.00000000000000	0.00000000000000	0.00000000000000	
22.55492000000000	7.69245200000000	736.65843400000006	38.95338800000000	0.26442700000000	0.00000000000000	0.10386900000000	0.00000000000000	0.00000000000000	0.00000000000000	0.00000000000000	0.00000000000000	0.00000000000000	0.00000000000000	20.00151300000000	0.00000000000000	0.00000000000000	0.00000000000000	0.00000000000000	
22.55658200000000	7.17812900000000	738.24597100000005	38.99772700000000	0.26357700000000	0.00000000000000	0.10382900000000	0.00000000000000	0.00000000000000	0.00000000000000	0.00000000000000	0.00000000000000	0.00000000000000	0.00000000000000	20.10281400000000	0.00000000000000	0.00000000000000	0.00000000000000	0.00000000000000	
